<?xml version="1.0" standalone="no"?>
<!DOCTYPE svg PUBLIC "-//W3C//DTD SVG 20010904//EN"
 "http://www.w3.org/TR/2001/REC-SVG-20010904/DTD/svg10.dtd">
<svg version="1.0" xmlns="http://www.w3.org/2000/svg"
 width="209.000000pt" height="209.000000pt" viewBox="0 0 209.000000 209.000000"
 preserveAspectRatio="xMidYMid meet">
<metadata>
Created by potrace 1.14, written by Peter Selinger 2001-2017
</metadata>
<g transform="translate(0.000000,209.000000) scale(0.100000,-0.100000)"
fill="#000000" stroke="none">
<path d="M931 2081 c-8 -5 -12 -19 -9 -34 5 -24 0 -28 -59 -52 -113 -45 -192
-114 -244 -214 -23 -46 -32 -160 -19 -260 3 -28 4 -54 1 -57 -3 -3 -6 -9 -6
-12 -1 -4 -4 -25 -9 -46 -9 -47 -27 -67 -47 -55 -29 15 -107 20 -149 9 -71
-19 -107 -49 -142 -119 -33 -66 -38 -96 -27 -169 5 -36 2 -50 -19 -80 -37 -55
-52 -96 -52 -145 0 -55 38 -130 86 -174 20 -17 37 -37 38 -45 4 -27 29 -93 37
-103 17 -17 9 -20 -54 -21 -42 0 -75 -7 -102 -21 -38 -20 -85 -71 -85 -93 0
-5 29 -24 65 -40 36 -17 95 -44 132 -61 218 -100 373 -169 382 -169 6 0 11 -4
11 -10 0 -5 5 -10 11 -10 6 0 23 -8 37 -18 15 -10 52 -28 82 -40 154 -61 302
-44 426 49 49 37 67 44 103 44 47 0 60 11 123 105 13 20 19 22 29 13 15 -15
17 -13 147 194 88 141 101 165 93 186 -6 14 -15 27 -20 28 -6 2 16 50 48 106
33 56 62 111 66 123 6 20 11 21 55 15 45 -6 51 -4 80 23 64 61 106 258 72 339
-21 49 -306 237 -416 274 -48 17 -51 20 -59 61 -22 114 -40 175 -59 195 -19
20 -19 23 -4 29 16 6 23 43 9 45 -5 1 -17 3 -28 4 -11 1 -40 21 -65 44 -84 77
-224 131 -351 134 -47 2 -68 7 -79 19 -10 12 -20 15 -29 9z"/>
</g>
</svg>
